<svg xmlns="http://www.w3.org/2000/svg" width="148" height="26" fill="none"><path fill="#fff" fill-rule="evenodd" d="M142.862 6.13V1.3l2.317-.712.089-.027L147.094 0v21.167h-3.913v-1.562c-2.183 2.022-4.601 2.438-7.245 1.402-1.786-.7-2.884-2.436-2.883-4.338 0-.724.014-1.449.027-2.174.03-1.657.061-3.314-.061-4.96-.261-3.525 3.526-5.366 5.914-5.08 1.443.174 2.762.581 3.928 1.674l.001.001Zm.016 11.136c-1.317 1.342-3.643 1.475-5.052.32-.319-.261-.491-.575-.487-1.023l.018-1.412v-.003c.025-1.694.049-3.389-.039-5.077-.08-1.551.821-2.071 2.032-2.375.702-.176 1.425-.095 2.115.142.932.32 1.499.788 1.446 1.972-.08 1.768-.064 3.54-.047 5.299.006.72.013 1.44.013 2.156l.001.001Z" clip-rule="evenodd"/><path fill="#fff" d="M10.126 10.867h4.014l-.001-.001c-.108-.483-.08-.969-.054-1.45.046-.807.09-1.598-.508-2.335C11.43 4.439 6.744 3.525 3.385 5.143 1.186 6.202-.197 7.688.023 10.393c.132 1.628.097 3.271.061 4.914a125.8 125.8 0 0 0-.031 1.894c-.002.386.102.706.304 1.025 1.95 3.085 6.405 4.35 10.13 2.871 3.115-1.238 4.306-3.293 3.525-6.086-1.288-.002-2.576-.002-3.93-.002v1.159c-.002 1.324-1.233 2.31-2.885 2.308-1.615-.001-2.88-1.028-2.874-2.344.005-.845.012-1.69.02-2.535.01-1.043.019-2.087.022-3.13.007-2.323 1.976-3.576 4.177-2.69 1.433.577 1.792 1.686 1.584 3.09Zm109.025-6.025h-3.88v16.333h4.271V10.457c0-2.163.767-2.895 2.97-2.831 1.763.05 2.589.894 2.589 2.632v5.437l.001.05.001 4.117v1.3h4.255c0-1.15-.006-2.296-.011-3.44-.014-2.81-.027-5.604.042-8.397.043-1.727-.747-2.876-1.99-3.813-2.299-1.733-5.194-1.367-8.248 1.015V4.842ZM39.434 4.84h-3.948v16.332h4.26V9.391c0-1.665 1.283-1.701 2.382-1.732h.02c1.146-.032 2.282.254 2.33 1.763.027.858.02 1.717.013 2.576-.004.391-.007.783-.007 1.174v7.996h4.292v-3.395c.002-2.805.002-5.597-.002-8.389-.002-1.644 1.25-1.688 2.339-1.726h.015c1.16-.04 2.279.256 2.325 1.762.026.854.02 1.71.012 2.565-.003.395-.006.79-.006 1.185v7.998h4.294V8.973c0-1.719-1.137-3.434-2.754-4.044-2.668-1.006-4.976-.461-6.901 1.753-1.026-1.477-2.449-2.206-4.2-2.226-1.72-.02-3.242.512-4.464 2.026V4.841Zm67.975 16.343v-1.72c-1.853 2.02-4.051 2.392-6.461 1.847-2.103-.475-3.617-2.407-3.622-4.55-.006-2.803-.005-5.605-.003-8.42V4.846h4.312v3.147c0 .781.006 1.562.012 2.343.015 1.872.03 3.744-.04 5.614-.055 1.459.711 2.046 1.906 2.335 1.036.25 2.023.043 2.934-.522.407-.254.589-.572.587-1.084-.018-2.966-.016-5.932-.014-8.914l.002-2.914h4.242v16.333h-3.855Z"/><path fill="#fff" fill-rule="evenodd" d="M65.652 4.846h-4.015V26l.828-.252 3.458-1.053v-4.833c1.169 1.12 2.508 1.543 3.994 1.667 3.322.276 5.859-1.988 5.861-5.285v-2.398c-.001-1.365-.002-2.73.001-4.094.009-3.134-2.197-5.328-5.36-5.303-1.8.015-3.43.503-4.767 1.996V4.846Zm.251 5.567v2.558h.001c0 .322.01.646.018.97.02.73.042 1.46-.043 2.178-.152 1.299.575 1.783 1.606 2.061.45.122.93.197 1.393.188 1.731-.033 2.595-.933 2.592-2.631-.001-.538-.008-1.076-.016-1.614-.018-1.336-.037-2.673.043-4.002.084-1.41-.623-2.023-1.803-2.38-2.185-.66-3.79.47-3.79 2.672Zm-34.206 3.373v-.746c.001-.218.005-.434.01-.652.01-.5.019-1-.02-1.496a6.986 6.986 0 0 1 .019-.991c.046-.7.092-1.399-.302-2.052-1.925-3.195-6.684-4.457-10.525-2.76-2.296 1.017-3.808 2.51-3.58 5.337.12 1.496.094 3.003.068 4.51a91.292 91.292 0 0 0-.021 2.299c.001.273.08.58.22.814 1.766 2.953 5.384 4.248 9.258 3.332 3.44-.813 4.885-2.622 4.874-6.101-.002-.498-.001-.996 0-1.494Zm-4.3 2.232V13l-.002-1.066V9.8c.002-1.296-1.218-2.264-2.87-2.274-1.618-.01-2.895.994-2.895 2.273a7158.147 7158.147 0 0 1 0 6.217c0 1.437 1.211 2.467 2.89 2.459 1.73-.008 2.877-.988 2.877-2.457ZM79.32 12.29v-.003c-.001-.466-.002-.933 0-1.4.02-3.73 1.394-5.428 5.083-6.29 3.68-.86 7.502.571 9.054 3.407.138.253.21.574.213.864.011 1.403.01 2.806.01 4.21v.004c-.001.79-.002 1.579 0 2.369.006 3.047-.994 4.504-3.875 5.627-3.67 1.432-8.177.218-10.074-2.654-.47-.713-.438-1.46-.406-2.204.013-.3.026-.601.006-.9-.036-.534-.027-1.072-.018-1.61.004-.24.008-.48.008-.72l-.001-.7Zm10.062.729v3.018c0 1.427-1.229 2.458-2.908 2.44-1.676-.018-2.869-1.029-2.869-2.433v-6.31c0-1.211 1.284-2.204 2.861-2.209 1.618-.005 2.918.979 2.916 2.201-.002.732-.001 1.464 0 2.195v1.098Z" clip-rule="evenodd"/></svg>