<svg xmlns="http://www.w3.org/2000/svg" width="189" height="48" fill="none"><mask id="a" width="43" height="43" x="2.508" y="2.508" fill="#000" maskUnits="userSpaceOnUse"><path fill="#fff" d="M2.508 2.508h43v43h-43z"/><path fill-rule="evenodd" d="M44.374 24.092c-.022-11.48-9.106-20.298-20.477-20.584-11.345.357-20.183 9.044-20.386 20.204C3.301 35.3 12.63 44.3 23.541 44.49c11.57.202 20.855-9.136 20.833-20.397ZM24.015 4.96c4.087-.107 7.807 2.716 8.961 6.62.617 2.088.473 4.18-.364 6.21-.162.39-.333.325-.549.057a10.137 10.137 0 0 0-3.774-2.941c-1.736-.784-3.537-1.015-5.423-.833-1.902.183-3.585.883-5.101 2.01a8.632 8.632 0 0 0-1.617 1.532c-.347.435-.502.387-.697-.135-1.625-4.36.102-9.084 4.197-11.399 1.354-.765 2.835-1.208 4.369-1.12l-.002-.001Zm-7.26 2.076c.55-.57 1.137-1.093 1.803-1.528-6.382 1.485-13.323 7.822-13.995 17.04-.78 10.709 6.792 18.427 14.292 20.159a12.291 12.291 0 0 1-1.984-1.546c-2.827-2.747-3.81-7.26-2.339-10.945.267-.666.248-1.204-.026-1.844-1.288-3.007-1.123-5.97.373-8.865.142-.274.156-.514.02-.787-.747-1.502-1.055-3.088-1.022-4.769.054-2.694 1.012-4.986 2.878-6.915Zm13.18-1.349c6.388 1.756 13.475 8.376 13.448 18.417-.027 9.915-6.98 16.637-13.811 18.471l.261-.203.001-.001c.15-.118.281-.22.415-.318 2.232-1.627 3.506-3.864 3.983-6.532.345-1.924.124-3.836-.701-5.637-.235-.512-.217-.944.01-1.47 1.144-2.641 1.136-5.313.077-7.984a9.89 9.89 0 0 0-.444-.995c-.107-.201-.038-.344.044-.513l.009-.018c.694-1.436 1.135-2.951 1.14-4.547.009-2.665-.862-5.03-2.655-7.025a14.62 14.62 0 0 0-1.777-1.645Zm-3.614 37.125c4.207-1.021 6.965-4.731 7.022-9.064l.001.001-.005-.065-.007-.092-.003-.038c-.069-.874-.148-1.883-.533-2.842-.144-.357-.25-.446-.53-.082-.742.967-1.603 1.816-2.658 2.449-3.757 2.253-7.513 2.204-11.245-.046-.954-.575-1.758-1.34-2.436-2.231a1.933 1.933 0 0 1-.04-.055c-.078-.108-.16-.223-.318-.206-.122.014-.155.118-.187.218a1.657 1.657 0 0 1-.018.054c-.558 1.552-.693 3.16-.37 4.757.439 2.163 1.478 4.012 3.241 5.413 2.405 1.91 5.1 2.553 8.086 1.829Zm-9.899-13.008c1.89 2.516 4.396 3.824 7.235 3.89 3.589-.022 6.13-1.43 8.07-4.025.281-.375.268-.662.01-1.02-1.79-2.486-4.197-3.906-7.268-4.015-3.407-.12-6.089 1.308-8.063 4.081-.27.38-.261.718.016 1.089Zm7.83-6.318h.002-.002Zm.34-.053-.34.053c-2.406-.148-4.461-.775-6.191-2.312-.577-.512-1.07-1.078-1.54-1.677-.221-.28-.208-.51.013-.786 2.004-2.5 4.62-3.812 7.805-3.73 2.192.057 4.202.825 5.842 2.366.427.402.842.821 1.235 1.258.43.476.435.684.044 1.178-1.537 1.938-3.497 3.165-5.974 3.513a44.41 44.41 0 0 0-.894.137Zm-3.744.624c-.285.149-.57.282-.853.414-.317.148-.631.294-.937.46-1.274.691-2.31 1.633-3.173 2.784-.021.029-.041.06-.062.093-.077.12-.158.248-.311.225-.15-.022-.175-.155-.2-.285a.809.809 0 0 0-.034-.141c-.876-2.33-.76-4.643.135-6.937.204-.523.28-.519.659-.08 1.226 1.428 2.674 2.553 4.446 3.232l.058.02c.094.03.197.064.27.215h.002Zm6.4-.046c.216-.103.427-.201.634-.297.7-.324 1.35-.625 1.954-1.027.83-.551 1.54-1.222 2.182-1.976.34-.4.47-.376.663.117.872 2.216.908 4.452.132 6.7-.186.535-.215.542-.55.116-1.23-1.557-2.748-2.718-4.606-3.427-.07-.026-.136-.062-.227-.11a5.152 5.152 0 0 0-.182-.096Z" clip-rule="evenodd"/></mask><path fill="#fff" fill-rule="evenodd" d="M44.374 24.092c-.022-11.48-9.106-20.298-20.477-20.584-11.345.357-20.183 9.044-20.386 20.204C3.301 35.3 12.63 44.3 23.541 44.49c11.57.202 20.855-9.136 20.833-20.397ZM24.015 4.96c4.087-.107 7.807 2.716 8.961 6.62.617 2.088.473 4.18-.364 6.21-.162.39-.333.325-.549.057a10.137 10.137 0 0 0-3.774-2.941c-1.736-.784-3.537-1.015-5.423-.833-1.902.183-3.585.883-5.101 2.01a8.632 8.632 0 0 0-1.617 1.532c-.347.435-.502.387-.697-.135-1.625-4.36.102-9.084 4.197-11.399 1.354-.765 2.835-1.208 4.369-1.12l-.002-.001Zm-7.26 2.076c.55-.57 1.137-1.093 1.803-1.528-6.382 1.485-13.323 7.822-13.995 17.04-.78 10.709 6.792 18.427 14.292 20.159a12.291 12.291 0 0 1-1.984-1.546c-2.827-2.747-3.81-7.26-2.339-10.945.267-.666.248-1.204-.026-1.844-1.288-3.007-1.123-5.97.373-8.865.142-.274.156-.514.02-.787-.747-1.502-1.055-3.088-1.022-4.769.054-2.694 1.012-4.986 2.878-6.915Zm13.18-1.349c6.388 1.756 13.475 8.376 13.448 18.417-.027 9.915-6.98 16.637-13.811 18.471l.261-.203.001-.001c.15-.118.281-.22.415-.318 2.232-1.627 3.506-3.864 3.983-6.532.345-1.924.124-3.836-.701-5.637-.235-.512-.217-.944.01-1.47 1.144-2.641 1.136-5.313.077-7.984a9.89 9.89 0 0 0-.444-.995c-.107-.201-.038-.344.044-.513l.009-.018c.694-1.436 1.135-2.951 1.14-4.547.009-2.665-.862-5.03-2.655-7.025a14.62 14.62 0 0 0-1.777-1.645Zm-3.614 37.125c4.207-1.021 6.965-4.731 7.022-9.064l.001.001-.005-.065-.007-.092-.003-.038c-.069-.874-.148-1.883-.533-2.842-.144-.357-.25-.446-.53-.082-.742.967-1.603 1.816-2.658 2.449-3.757 2.253-7.513 2.204-11.245-.046-.954-.575-1.758-1.34-2.436-2.231a1.933 1.933 0 0 1-.04-.055c-.078-.108-.16-.223-.318-.206-.122.014-.155.118-.187.218a1.657 1.657 0 0 1-.018.054c-.558 1.552-.693 3.16-.37 4.757.439 2.163 1.478 4.012 3.241 5.413 2.405 1.91 5.1 2.553 8.086 1.829Zm-9.899-13.008c1.89 2.516 4.396 3.824 7.235 3.89 3.589-.022 6.13-1.43 8.07-4.025.281-.375.268-.662.01-1.02-1.79-2.486-4.197-3.906-7.268-4.015-3.407-.12-6.089 1.308-8.063 4.081-.27.38-.261.718.016 1.089Zm7.83-6.318h.002-.002Zm.34-.053-.34.053c-2.406-.148-4.461-.775-6.191-2.312-.577-.512-1.07-1.078-1.54-1.677-.221-.28-.208-.51.013-.786 2.004-2.5 4.62-3.812 7.805-3.73 2.192.057 4.202.825 5.842 2.366.427.402.842.821 1.235 1.258.43.476.435.684.044 1.178-1.537 1.938-3.497 3.165-5.974 3.513a44.41 44.41 0 0 0-.894.137Zm-3.744.624c-.285.149-.57.282-.853.414-.317.148-.631.294-.937.46-1.274.691-2.31 1.633-3.173 2.784-.021.029-.041.06-.062.093-.077.12-.158.248-.311.225-.15-.022-.175-.155-.2-.285a.809.809 0 0 0-.034-.141c-.876-2.33-.76-4.643.135-6.937.204-.523.28-.519.659-.08 1.226 1.428 2.674 2.553 4.446 3.232l.058.02c.094.03.197.064.27.215h.002Zm6.4-.046c.216-.103.427-.201.634-.297.7-.324 1.35-.625 1.954-1.027.83-.551 1.54-1.222 2.182-1.976.34-.4.47-.376.663.117.872 2.216.908 4.452.132 6.7-.186.535-.215.542-.55.116-1.23-1.557-2.748-2.718-4.606-3.427-.07-.026-.136-.062-.227-.11a5.152 5.152 0 0 0-.182-.096Z" clip-rule="evenodd"/><path fill="#fff" d="M44.374 24.092h-.25.25ZM23.898 3.508l.008.25-.008-.5v.25Zm-.001 0v-.25l-.006.5.006-.25ZM3.51 23.712l-.25-.004.25.004Zm20.03 20.777-.003.25.004-.25Zm9.435-32.908-.24.07.24-.07Zm-8.96-6.621-.007-.25-.582.015.412.411.177-.176Zm8.596 12.83.23.095-.23-.095Zm-.549.057.195-.157-.195.157Zm-3.774-2.941.103-.228-.103.228Zm-5.423-.833.024.249-.024-.249Zm-5.101 2.01.15.201-.15-.2Zm-1.617 1.532-.196-.156.196.156Zm-.697-.135.235-.088-.235.088Zm4.198-11.4.123.218-.123-.218Zm4.369-1.12-.015.25.655.037-.464-.464-.177.177Zm-5.46.547.138.21-.194-.453.057.243Zm-1.802 1.528.18.174-.18-.174ZM4.563 22.549l-.249-.018.25.018Zm14.292 20.157-.057.244.19-.455-.133.212Zm-1.984-1.545.174-.18-.174.18Zm-2.339-10.945-.232-.093.232.093Zm-.026-1.844.23-.099-.23.099Zm.373-8.865-.222-.115.222.115Zm.02-.787.225-.111-.224.111Zm-1.022-4.769-.25-.005.25.005Zm29.506 10.153h.25-.25ZM29.935 5.687l.066-.241-.222.437.156-.196Zm-.363 36.888-.153-.198.218.44-.065-.242Zm.261-.203.154.196-.154-.196Zm.001-.001-.154-.197.154.197Zm.415-.318.147.202-.147-.202Zm3.983-6.532.246.044-.246-.044Zm-.701-5.637.227-.104-.227.104Zm.01-1.47-.23-.1v.001l.23.1Zm.077-7.984-.232.092.232-.092Zm-.444-.995.22-.117-.22.117Zm.044-.513.225.11-.225-.11Zm.009-.018.225.109-.225-.109Zm1.14-4.547.25.001h-.25Zm-2.655-7.025.186-.167-.186.167Zm1.631 26.416.177-.177-.419-.419-.008.593.25.003Zm-7.022 9.064-.06-.243.06.243Zm7.023-9.063-.176.177.48.48-.054-.677-.25.02Zm-.005-.065-.249.02.25-.02Zm-.007-.092-.25.02.25-.02Zm-.003-.038-.25.02.25-.02Zm-.533-2.842.232-.093-.232.093Zm-.53-.082.199.152-.199-.152Zm-2.658 2.449.129.214-.129-.214Zm-11.245-.046-.129.214.13-.214Zm-2.436-2.231.2-.151-.002-.001-.198.152Zm-.04-.055-.203.146.203-.146Zm-.318-.206.027.25v-.001l-.027-.248Zm-.187.218.238.075-.238-.075Zm-.018.054-.235-.085.235.085Zm-.37 4.757.245-.05-.245.05Zm3.241 5.413-.155.196.155-.196Zm5.422-7.288-.005.25.255.006v-.256h-.25Zm-7.235-3.891-.2.15.2-.15Zm7.235 3.89-.001-.25-.248.001v.249h.25Zm8.07-4.025-.2-.15.2.15Zm.01-1.02-.203.147.203-.146Zm-7.268-4.015.009-.25-.009.25Zm-8.063 4.081.203.145-.203-.145Zm7.848-5.229v.25l.015-.499-.015.25Zm-.002 0-.038-.247.038.497v-.25Zm.34-.053-.038-.247h-.001l.04.247Zm-6.531-2.259.166-.187-.166.187Zm-1.54-1.677.196-.154-.197.154Zm.013-.786-.195-.157.195.157Zm7.805-3.73.007-.25-.007.25Zm5.842 2.366-.172.182.172-.182Zm1.235 1.258-.186.167.186-.167Zm.044 1.178-.196-.156.196.156Zm-5.974 3.513.035.248-.035-.248Zm-.894.137.038.247h.002l-.04-.247Zm-4.597 1.038.106.227-.106-.227Zm.852-.414.117.221-.116-.471v.25Zm-1.789.874.12.22-.12-.22Zm-3.173 2.784.2.15-.2-.15Zm-.062.093.21.134-.21-.134Zm-.311.225-.037.248.037-.248Zm-.2-.285.246-.047-.246.047Zm-.034-.141-.234.088.234-.088Zm.135-6.937.233.091-.233-.09Zm.659-.08.19-.163-.19.163Zm4.446 3.232.09-.233h-.001l-.09.233Zm.058.02-.077.238.077-.238Zm.27.215-.225.109.069.14h.156v-.25Zm7.036-.343.105.227-.105-.227Zm-.634.297-.108-.226-.458.22.453.229.113-.223Zm2.588-1.324.139.208-.139-.208Zm2.182-1.976-.19-.162.19.162Zm.663.117-.232.092.233-.092Zm.132 6.7.236.081-.236-.081Zm-.55.116-.197.155.196-.155Zm-4.606-3.427.09-.233h-.001l-.09.233Zm-.227-.11-.118.22.118-.22ZM23.89 3.756c11.242.284 20.211 8.997 20.233 20.336l.5-.001c-.022-11.623-9.221-20.544-20.72-20.834l-.013.5Zm.014 0-.015-.5v.001l.015.5Zm-.007-.5h-.001v.5-.5Zm-.007.5.013-.5-.013.5ZM3.76 23.718c.2-11.022 8.926-19.606 20.144-19.96l-.015-.499c-11.474.361-20.423 9.15-20.629 20.45l.5.009ZM23.545 44.24C12.766 44.052 3.553 35.162 3.76 23.718l-.5-.01c-.213 11.731 9.232 20.84 20.277 21.032l.008-.5Zm20.578-20.146c.022 11.12-9.15 20.346-20.578 20.146l-.008.5c11.709.205 21.108-9.247 21.086-20.647h-.5ZM33.216 11.51c-1.186-4.01-5.002-6.91-9.207-6.8l.013.5c3.969-.104 7.59 2.64 8.714 6.442l.48-.142Zm-.373 6.375c.857-2.08 1.007-4.23.373-6.375l-.48.142c.6 2.03.46 4.063-.355 6.042l.462.19Zm-.975.118c.06.074.125.146.197.201.07.054.169.11.29.111a.424.424 0 0 0 .315-.142.938.938 0 0 0 .173-.288l-.462-.19a.479.479 0 0 1-.074.134c-.005.005-.003.001.008-.004a.105.105 0 0 1 .045-.01c.032 0 .038.014.01-.007a.728.728 0 0 1-.112-.118l-.39.313Zm-3.682-2.87a9.886 9.886 0 0 1 3.683 2.87l.39-.313a10.388 10.388 0 0 0-3.867-3.012l-.206.456Zm-5.296-.811c1.85-.178 3.605.048 5.296.812l.206-.456c-1.782-.804-3.627-1.04-5.55-.854l.049.498Zm-4.976 1.962c1.483-1.103 3.123-1.784 4.976-1.962l-.047-.498c-1.952.188-3.678.906-5.227 2.06l.298.4Zm-1.571 1.487a8.388 8.388 0 0 1 1.571-1.487l-.298-.4a8.877 8.877 0 0 0-1.664 1.575l.391.312Zm-1.126-.204c.05.136.105.258.168.354a.502.502 0 0 0 .305.23.47.47 0 0 0 .378-.099c.093-.068.184-.168.275-.282l-.39-.311a1.098 1.098 0 0 1-.18.19c-.04.029-.025.003.022.013.041.009.04.032.007-.018a1.31 1.31 0 0 1-.116-.252l-.469.175Zm4.307-11.703c-4.2 2.374-5.976 7.227-4.307 11.703l.469-.175c-1.583-4.243.097-8.838 4.085-11.093l-.247-.435Zm4.507-1.153c-1.592-.09-3.121.37-4.506 1.153l.246.435c1.322-.748 2.757-1.173 4.231-1.089l.029-.499Zm-.192.425v.002l.354-.354v-.001l-.354.353ZM18.42 5.3c-.686.448-1.288.985-1.845 1.563l.36.347c.54-.56 1.113-1.07 1.759-1.492L18.42 5.3ZM4.813 22.567c.662-9.1 7.517-15.353 13.802-16.815l-.114-.487C12.022 6.772 4.994 13.193 4.314 22.53l.499.036ZM18.91 42.463c-7.392-1.707-14.868-9.324-14.098-19.896l-.499-.036c-.79 10.843 6.878 18.663 14.484 20.419l.113-.487Zm-2.214-1.123c.616.6 1.3 1.117 2.023 1.577l.269-.422c-.7-.445-1.357-.943-1.944-1.513l-.348.358ZM14.3 30.123c-1.51 3.78-.502 8.4 2.397 11.217l.348-.358c-2.754-2.677-3.714-7.083-2.28-10.674l-.465-.185Zm-.023-1.653c.127.298.19.56.195.819.005.257-.048.525-.172.834l.465.186c.143-.358.213-.692.207-1.03a2.655 2.655 0 0 0-.236-1.006l-.46.197Zm.38-9.078c-1.528 2.959-1.7 6-.38 9.078l.46-.197c-1.258-2.935-1.099-5.82.364-8.651l-.444-.23Zm.019-.56a.56.56 0 0 1 .067.272.677.677 0 0 1-.086.288l.444.23a1.17 1.17 0 0 0 .142-.5 1.058 1.058 0 0 0-.12-.513l-.447.222Zm-1.05-4.886c-.033 1.716.282 3.343 1.05 4.885l.448-.223c-.729-1.46-1.03-3.006-.997-4.652l-.5-.01Zm2.95-7.084c-1.91 1.975-2.894 4.327-2.95 7.084l.5.01c.054-2.63.987-4.862 2.81-6.746l-.36-.348Zm27.057 17.242c.028-10.168-7.15-16.877-13.632-18.658l-.132.482c6.294 1.73 13.291 8.262 13.264 18.175l.5.001ZM29.637 42.817c6.925-1.86 13.969-8.671 13.996-18.713l-.5-.001c-.027 9.788-6.89 16.422-13.626 18.23l.13.484Zm.042-.642-.26.202.306.396.262-.205-.308-.393Zm0 0 .309.393-.308-.394Zm.423-.324c-.138.1-.273.206-.422.323l.308.394c.151-.119.279-.218.408-.313l-.294-.404Zm3.884-6.374c-.467 2.611-1.71 4.79-3.884 6.374l.295.404c2.288-1.669 3.593-3.966 4.081-6.69l-.492-.088Zm-.682-5.49c.803 1.755 1.018 3.615.682 5.49l.492.088c.353-1.972.127-3.936-.72-5.785l-.455.208Zm.008-1.672a2.177 2.177 0 0 0-.2.835c-.004.281.061.554.192.838l.454-.209a1.41 1.41 0 0 1-.145-.621c.003-.196.053-.402.158-.645l-.46-.198Zm.074-7.793c1.035 2.613 1.042 5.216-.074 7.793l.459.199c1.171-2.706 1.161-5.446.08-8.176l-.465.184Zm-.433-.97c.163.308.3.635.433.97l.465-.184c-.134-.34-.28-.687-.456-1.02l-.442.234Zm.04-.738c-.037.077-.093.187-.114.31a.652.652 0 0 0 .074.428l.442-.234c-.028-.053-.028-.083-.023-.109a.742.742 0 0 1 .071-.178l-.45-.217Zm.009-.019-.009.019.45.217.009-.018-.45-.218Zm1.115-4.439c-.005 1.55-.433 3.028-1.115 4.44l.45.217c.706-1.46 1.16-3.013 1.166-4.655l-.5-.002ZM31.526 7.5c1.75 1.947 2.6 4.251 2.591 6.857l.5.001c.009-2.725-.884-5.15-2.72-7.193l-.371.335Zm-1.747-1.617A14.37 14.37 0 0 1 31.526 7.5l.372-.335a14.878 14.878 0 0 0-1.807-1.673l-.312.39Zm3.314 27.862c-.055 4.226-2.743 7.832-6.831 8.824l.118.485c4.326-1.05 7.155-4.864 7.213-9.303l-.5-.006Zm.428-.173-.354.353.354-.353Zm-.43.132.004.065.499-.04-.005-.065-.499.04Zm-.008-.093.007.093.498-.04-.007-.092-.498.04Zm-.003-.038.003.038.498-.039-.003-.038-.498.04Zm-.516-2.768c.369.919.447 1.89.516 2.768l.498-.039c-.068-.869-.148-1.915-.55-2.915l-.464.186Zm-.1-.023c.032-.04.059-.072.081-.096a.362.362 0 0 1 .048-.044c.01-.007.007-.003-.007 0a.134.134 0 0 1-.114-.022l.01.014a.59.59 0 0 1 .036.065c.014.03.03.065.046.106l.464-.186a1.51 1.51 0 0 0-.127-.258.452.452 0 0 0-.254-.202.406.406 0 0 0-.347.077 1.188 1.188 0 0 0-.232.242l.397.304Zm-2.727 2.511c1.088-.653 1.972-1.526 2.728-2.51l-.397-.305c-.728.949-1.568 1.774-2.588 2.386l.257.43Zm-11.503-.046c1.898 1.144 3.813 1.735 5.74 1.748 1.928.012 3.851-.555 5.763-1.702l-.257-.429c-1.846 1.107-3.68 1.642-5.502 1.63-1.823-.01-3.651-.57-5.486-1.675l-.258.428Zm-2.506-2.294c.694.913 1.52 1.7 2.506 2.294l.258-.428c-.923-.557-1.704-1.298-2.366-2.169l-.398.303Zm-.044-.06c.013.018.028.04.045.06l.396-.303a2.21 2.21 0 0 1-.035-.048l-.406.29Zm-.087-.103c.006 0 .005 0 .001-.001l.004.003a.233.233 0 0 1 .031.033c.016.019.03.04.05.068l.407-.291c-.06-.085-.225-.345-.549-.309l.056.497Zm.023.044a.956.956 0 0 1 .02-.058l.008-.017a.076.076 0 0 1-.021.019.078.078 0 0 1-.031.012l-.054-.497a.417.417 0 0 0-.307.183c-.052.077-.078.165-.091.207l.476.151Zm-.02.064.02-.064-.476-.151-.015.045.47.17Zm-.36 4.623c-.315-1.55-.184-3.112.36-4.623l-.471-.17c-.573 1.593-.713 3.248-.38 4.892l.49-.1Zm3.15 5.266c-1.711-1.36-2.723-3.155-3.15-5.266l-.49.099c.448 2.214 1.516 4.118 3.33 5.559l.31-.392Zm7.872 1.782c-2.907.705-5.524.083-7.871-1.782l-.311.392c2.463 1.956 5.237 2.619 8.3 1.875l-.118-.485Zm-2.599-9.124c-2.757-.065-5.193-1.332-7.04-3.791l-.4.3c1.932 2.573 4.507 3.922 7.429 3.99l.011-.5Zm-.256.249h.5-.5Zm8.12-4.174c-1.894 2.534-4.363 3.902-7.871 3.924l.003.5c3.669-.023 6.283-1.468 8.268-4.125l-.4-.3Zm.007-.724c.113.157.15.267.15.358 0 .089-.035.202-.157.366l.4.3c.16-.213.258-.43.257-.668 0-.236-.1-.448-.245-.649l-.405.293Zm-7.074-3.912c2.987.105 5.324 1.482 7.074 3.912l.405-.293c-1.83-2.542-4.305-4.007-7.461-4.119l-.018.5Zm-7.85 3.976c1.928-2.71 4.533-4.092 7.85-3.976l.018-.5c-3.497-.122-6.256 1.349-8.276 4.186l.407.29Zm.012.794c-.118-.158-.162-.285-.164-.396-.002-.11.037-.238.151-.398l-.407-.29c-.156.22-.248.45-.244.697.005.247.105.474.264.687l.4-.3Zm7.647-6.417h-.001l-.031.499h.001l.031-.499Zm-.017.5h.002v-.5h-.002v.5Zm-.038-.498.076.495-.076-.495Zm.076.494.342-.053-.08-.494-.338.053.076.494Zm-6.395-2.372c1.784 1.585 3.899 2.225 6.342 2.375l.03-.5c-2.37-.145-4.364-.76-6.04-2.249l-.332.374Zm-1.571-1.709c.476.604.978 1.183 1.57 1.709l.333-.374c-.562-.498-1.044-1.052-1.51-1.644l-.393.31Zm.014-1.098c-.127.16-.221.339-.226.542-.006.206.08.39.212.556l.393-.31c-.09-.112-.107-.184-.106-.233.002-.051.025-.126.118-.242l-.39-.313Zm8.008-3.823c-3.27-.085-5.958 1.268-8.007 3.823l.39.313c1.96-2.443 4.502-3.716 7.604-3.636l.013-.5Zm6.006 2.434c-1.688-1.586-3.757-2.375-6.006-2.434l-.013.5c2.134.055 4.084.802 5.677 2.298l.342-.364Zm1.25 1.272a21.582 21.582 0 0 0-1.25-1.272l-.343.364c.424.398.833.813 1.221 1.243l.372-.335Zm.054 1.5c.194-.245.35-.485.34-.758-.01-.273-.18-.505-.394-.742l-.371.335c.216.24.263.35.265.424.003.073-.036.183-.232.431l.392.31Zm-6.135 3.607c2.547-.358 4.562-1.622 6.135-3.606l-.392-.31c-1.502 1.893-3.406 3.083-5.813 3.42l.07.496Zm-.89.136c.268-.043.578-.093.89-.136l-.07-.496a45.83 45.83 0 0 0-.898.138l.079.494Zm0 0-.077-.494.076.494Zm-4.53 1.018c.282-.132.572-.268.863-.42l-.232-.443c-.279.146-.56.277-.843.41l.212.453Zm-.923.453c.297-.162.604-.305.923-.453l-.212-.454c-.316.148-.636.297-.95.467l.239.44Zm-3.093 2.714c.844-1.126 1.853-2.042 3.093-2.714l-.239-.44c-1.31.71-2.372 1.678-3.254 2.854l.4.3Zm-.051.077a1.26 1.26 0 0 1 .051-.077l-.4-.3a1.382 1.382 0 0 0-.073.109l.422.268Zm-.56.339a.463.463 0 0 0 .39-.12c.078-.072.136-.166.17-.219l-.422-.268-.05.076a.252.252 0 0 1-.033.039c-.006.005-.005.003.003 0a.052.052 0 0 1 .012-.003h.005l-.074.495Zm-.407-.487c.01.055.028.162.078.255.06.113.168.207.33.232l.074-.495c-.001 0 .008.002.02.01.013.01.017.018.016.017a.171.171 0 0 1-.01-.032 1.313 1.313 0 0 1-.017-.08l-.491.093Zm-.023-.098a.65.65 0 0 1 .023.098l.491-.093c-.008-.044-.021-.116-.047-.183l-.467.178Zm.136-7.117c-.915 2.345-1.036 4.722-.136 7.116l.468-.176c-.851-2.265-.742-4.514.134-6.758l-.466-.182Zm1.081-.152a2.574 2.574 0 0 0-.261-.274c-.071-.06-.193-.148-.349-.132-.166.017-.262.14-.314.22a2.07 2.07 0 0 0-.157.338l.466.182a1.66 1.66 0 0 1 .114-.253c.033-.05.017.002-.057.01a.116.116 0 0 1-.058-.007c-.001 0 .008.004.031.023.047.04.111.109.206.22l.38-.327Zm4.346 3.161c-1.726-.66-3.141-1.758-4.346-3.16l-.379.325c1.248 1.453 2.73 2.606 4.546 3.302l.179-.467Zm.046.016-.045-.015-.18.466c.026.01.052.018.07.024l.155-.475Zm.419.344a.614.614 0 0 0-.214-.252c-.08-.053-.162-.078-.205-.092l-.154.476c.05.016.068.023.082.032.008.005.023.017.04.054l.45-.218Zm-.224-.141h-.002v.5h.002v-.5Zm6.93-.32c-.208.096-.42.195-.638.298l.216.452c.214-.103.424-.2.631-.296l-.21-.454Zm1.92-1.008c-.585.389-1.219.683-1.92 1.008l.21.454c.695-.322 1.364-.632 1.987-1.046l-.277-.416Zm2.13-1.93c-.631.74-1.324 1.394-2.13 1.93l.277.416c.852-.567 1.58-1.254 2.233-2.022l-.38-.324Zm1.086.188a1.712 1.712 0 0 0-.164-.332.474.474 0 0 0-.302-.216.467.467 0 0 0-.358.1 1.65 1.65 0 0 0-.263.26l.38.324c.083-.097.14-.152.178-.18.041-.03.025-.003-.024-.012-.048-.009-.053-.038-.023.006.028.041.064.114.11.233l.466-.183Zm.135 6.872c.795-2.303.758-4.6-.135-6.872l-.465.183c.849 2.16.885 4.334.127 6.526l.473.163Zm-.983.19c.082.104.157.197.225.262.034.033.078.07.13.097a.337.337 0 0 0 .225.033.345.345 0 0 0 .188-.115.614.614 0 0 0 .086-.134c.042-.086.084-.202.129-.333l-.473-.163a6.536 6.536 0 0 1-.06.169 1.297 1.297 0 0 1-.045.106c-.012.026-.018.03-.013.026a.157.157 0 0 1 .084-.045.165.165 0 0 1 .107.01c.01.006.007.006-.012-.011a1.09 1.09 0 0 1-.071-.079 5.82 5.82 0 0 1-.108-.133l-.392.31Zm-4.498-3.348c1.812.691 3.295 1.824 4.498 3.348l.392-.31c-1.255-1.59-2.81-2.78-4.712-3.506l-.178.468Zm-.256-.124c.087.046.168.09.256.124l.178-.468a1.787 1.787 0 0 1-.198-.097l-.236.44Zm-.177-.093c.069.035.126.065.177.093l.236-.441c-.051-.027-.112-.06-.187-.098l-.226.446Z" mask="url(#a)"/><path fill="#fff" d="M52 21.762v-9.94h3.262c2.856 0 4.718 2.002 4.718 4.956 0 2.898-1.848 4.984-4.746 4.984H52Zm1.33-1.12h1.876c2.142 0 3.36-1.736 3.36-3.864 0-2.212-1.19-3.836-3.332-3.836H53.33v7.7Zm11.268 1.12h-1.33v-9.94h1.33v9.94Zm7.209.238c-2.534 0-3.822-1.372-3.99-3.192l1.344-.196c.182 1.218.938 2.296 2.688 2.296 1.078 0 2.212-.448 2.212-1.708 0-1.176-.728-1.554-1.89-1.792l-1.442-.294c-1.414-.294-2.492-1.036-2.492-2.744 0-1.666 1.344-2.786 3.458-2.786 1.974 0 3.486.882 3.682 2.828l-1.33.28c-.168-1.33-.91-2.058-2.38-2.058-1.218 0-2.058.602-2.058 1.61 0 .966.518 1.47 1.624 1.708l1.456.308c1.54.322 2.744 1.008 2.744 2.814 0 1.54-1.148 2.926-3.626 2.926Zm5.301-9.058v-1.12h7.574v1.12H81.56v8.82h-1.33v-8.82h-3.122Zm10.448 8.82v-9.94h3.682c2.604 0 3.29 1.456 3.29 2.912 0 1.12-.574 2.338-2.24 2.716l2.548 4.312h-1.498l-2.436-4.13h-2.016v4.13h-1.33Zm1.33-5.25h2.198c1.54 0 2.044-.784 2.044-1.778 0-1.022-.518-1.792-2.044-1.792h-2.198v3.57Zm10.57 5.25h-1.33v-9.94h1.33v9.94Zm4.059 0v-9.94h3.458c2.618 0 3.304 1.47 3.304 2.646 0 .938-.532 1.834-1.666 2.156 1.19.21 1.946 1.078 1.946 2.408 0 1.274-.77 2.73-3.29 2.73h-3.752Zm1.33-1.12h2.352c1.554 0 2.044-.84 2.044-1.736 0-.924-.546-1.652-1.904-1.652h-2.492v3.388Zm0-4.508h2.128c1.708 0 1.988-.882 1.988-1.568 0-.784-.378-1.624-1.988-1.624h-2.128v3.192Zm9.005-4.312h1.33v6.384c0 1.596.882 2.618 2.492 2.618 1.61 0 2.492-1.022 2.492-2.618v-6.384h1.33v6.468c0 2.212-1.358 3.71-3.822 3.71s-3.822-1.498-3.822-3.71v-6.468Zm10.368 1.12v-1.12h7.574v1.12h-3.122v8.82h-1.33v-8.82h-3.122Zm11.778 7.7h4.928v1.12h-6.258v-9.94h6.16v1.12h-4.83v3.164h4.592v1.12h-4.592v3.416Zm8.502 1.12v-9.94h3.262c2.856 0 4.718 2.002 4.718 4.956 0 2.898-1.848 4.984-4.746 4.984h-3.234Zm1.33-1.12h1.876c2.142 0 3.36-1.736 3.36-3.864 0-2.212-1.19-3.836-3.332-3.836h-1.904v7.7ZM56.354 36.416c-2.716 0-4.354-2.212-4.354-5.208C52 28.17 53.638 26 56.578 26c2.744 0 3.626 1.904 3.794 3.01l-1.316.182c-.14-.84-.742-2.072-2.52-2.072-2.03 0-3.178 1.68-3.178 4.102 0 2.268 1.036 4.06 3.192 4.06 2.45 0 2.814-2.058 2.814-3.01v-.168h-2.912v-1.12h4.102v5.194h-.966l-.182-1.596c-.434 1.078-1.568 1.834-3.052 1.834Zm7.834-.238v-9.94h1.33v8.82h4.592v1.12h-5.922Zm12.218.238c-2.758 0-4.55-2.03-4.55-5.208 0-3.248 1.792-5.208 4.55-5.208 2.744 0 4.536 1.96 4.536 5.208 0 3.22-1.792 5.208-4.536 5.208Zm-3.15-5.208c0 2.492 1.162 4.088 3.15 4.088s3.136-1.554 3.136-4.088c0-2.548-1.148-4.088-3.136-4.088-1.988 0-3.15 1.54-3.15 4.088Zm10.98 4.97v-9.94h3.457c2.618 0 3.305 1.47 3.305 2.646 0 .938-.532 1.834-1.666 2.156 1.19.21 1.946 1.078 1.946 2.408 0 1.274-.77 2.73-3.29 2.73h-3.752Zm1.33-1.12h2.352c1.553 0 2.043-.84 2.043-1.736 0-.924-.546-1.652-1.903-1.652h-2.493v3.388Zm0-4.508h2.127c1.709 0 1.989-.882 1.989-1.568 0-.784-.379-1.624-1.989-1.624h-2.127v3.192Zm7.818 5.628 3.766-9.94h1.316l3.766 9.94h-1.372l-1.022-2.87h-4.06l-1.022 2.87h-1.372Zm2.786-3.99h3.276L98.06 28.31a9.926 9.926 0 0 1-.238-.756h-.028a9.926 9.926 0 0 1-.238.756l-1.386 3.878Zm8.933 3.99v-9.94h1.33v8.82h4.592v1.12h-5.922Z"/></svg>