<svg xmlns="http://www.w3.org/2000/svg" width="108" height="60" fill="none"><circle cx="25" cy="31" r="25" fill="#434343"/><path fill="#1B1B1B" d="M11.95 30.2c0-1.2.925-2.125 2.1-2.125h21.9c1.175 0 2.1.925 2.1 2.125v.15c0 1.2-.925 2.1-2.1 2.1h-21.9c-1.175 0-2.1-.9-2.1-2.1v-.15Z"/><circle cx="83" cy="31" r="25" fill="#434343"/><path fill="#1B1B1B" d="M80.7 19.075c0-1.475.925-2.3 2.25-2.3h.1c1.425 0 2.25.825 2.25 2.3v9.2h8.65c1.175 0 2.1.9 2.1 2.15v.1c-.05 1.3-.925 2.15-2.1 2.15H85.3v9.25c0 1.475-.825 2.3-2.25 2.3h-.1c-1.325 0-2.25-.825-2.25-2.3v-9.25h-8.65c-1.175 0-2.05-.85-2.1-2.15v-.1c0-1.25.925-2.15 2.1-2.15h8.65v-9.2Z"/></svg>