<svg xmlns="http://www.w3.org/2000/svg" width="189" height="48" fill="none"><path fill="#fff" fill-rule="evenodd" d="M91.303 22.291a5.733 5.733 0 0 0-.332 1.944c0 .68.118 1.35.352 1.963.233.603.566 1.126.996 1.571.429.445.937.8 1.523 1.06.6.248 1.25.373 1.953.373 1.863 0 3.34-.753 4.435-2.26l-1.681-1.12a3.081 3.081 0 0 1-1.172 1.04c-.468.235-.99.354-1.562.354a2.66 2.66 0 0 1-1.134-.235 2.5 2.5 0 0 1-.858-.647 3.114 3.114 0 0 1-.547-.943 3.461 3.461 0 0 1-.195-1.159c0-.406.057-.79.175-1.158.119-.38.287-.714.51-1.001.233-.288.52-.518.858-.686.352-.172.756-.255 1.21-.255.509 0 .99.144 1.444.432.457.287.787.68.996 1.178l1.934-.647c-.39-.957-.982-1.682-1.777-2.18a4.64 4.64 0 0 0-2.597-.765c-.743 0-1.414.138-2.01.412-.6.273-1.115.647-1.544 1.12a5.06 5.06 0 0 0-.977 1.609Zm32.465 4.947h-3.829v-2.14c0-.55.053-1.068.157-1.551.118-.484.294-.905.528-1.256.248-.354.553-.636.919-.843.377-.21.82-.316 1.329-.316.325 0 .643.034.957.097.313.053.592.125.839.216l.41-2.022a4.44 4.44 0 0 0-.881-.215 6.828 6.828 0 0 0-.918-.058 4.06 4.06 0 0 0-1.992.53c-.624.34-1.105.916-1.444 1.729v-2.16h-4.726v1.767h2.754v6.225h-2.754v1.767h8.651v-1.77Zm12.112 0v1.767h-8.651v-1.767h2.754v-6.222h-2.754V19.25h4.726v2.16c.338-.81.819-1.388 1.444-1.729a4.05 4.05 0 0 1 1.992-.53c.324 0 .632.019.919.058.286.038.58.11.877.215l-.41 2.022a4.714 4.714 0 0 0-.839-.216 4.61 4.61 0 0 0-.957-.097c-.509 0-.952.105-1.329.316-.366.21-.671.489-.919.843a3.98 3.98 0 0 0-.528 1.256 7.373 7.373 0 0 0-.157 1.55v2.141h3.832Zm9.826-.138a3.506 3.506 0 0 1-1.348.274c-.795 0-1.438-.23-1.934-.689-.481-.459-.756-1.059-.819-1.806h7.108c.014-.143.019-.287.019-.431.014-.144.019-.307.019-.492 0-.68-.11-1.308-.333-1.886a4.509 4.509 0 0 0-.938-1.532 4.341 4.341 0 0 0-1.466-1.02c-.561-.25-1.185-.374-1.876-.374a4.5 4.5 0 0 0-1.895.393 4.458 4.458 0 0 0-1.486 1.04 4.828 4.828 0 0 0-.976 1.59 5.835 5.835 0 0 0-.333 1.982c0 .708.119 1.413.352 2.041a4.92 4.92 0 0 0 1.015 1.59c.429.445.944.791 1.543 1.04a5.1 5.1 0 0 0 1.973.373c.819 0 1.609-.171 2.363-.511.753-.34 1.4-.882 1.934-1.629l-1.778-.904c-.324.445-.709.76-1.152.943l.008.008Zm-3.262-5.478c.456-.432 1.034-.647 1.738-.647.338 0 .644.058.919.177.286.119.533.282.743.49.22.195.396.439.528.727.129.273.201.575.215.904h-4.903c.067-.667.32-1.217.763-1.648l-.003-.003Zm21 2.61c0-.68.109-1.327.332-1.944a5.021 5.021 0 0 1 .977-1.61 4.76 4.76 0 0 1 1.543-1.12c.6-.273 1.268-.411 2.011-.411.949 0 1.816.254 2.597.766.794.498 1.386 1.225 1.776 2.179l-1.933.647a2.524 2.524 0 0 0-.996-1.178 2.666 2.666 0 0 0-1.444-.431 2.76 2.76 0 0 0-1.21.254 2.606 2.606 0 0 0-.859.686 3.22 3.22 0 0 0-.509 1 3.76 3.76 0 0 0-.176 1.16c0 .406.066.79.196 1.158.129.354.313.667.547.943.234.274.52.492.858.647a2.65 2.65 0 0 0 1.133.235c.573 0 1.095-.119 1.563-.354a3.106 3.106 0 0 0 1.172-1.04l1.681 1.12c-1.095 1.505-2.572 2.26-4.435 2.26a5.04 5.04 0 0 1-1.953-.373 4.838 4.838 0 0 1-1.524-1.06 4.656 4.656 0 0 1-.995-1.57 5.47 5.47 0 0 1-.352-1.964Zm13.467-4.986h-2.244l3.573 9.76h.605l-1.876 4.811h2.03l5.469-14.568h-2.187l-2.753 7.854-2.617-7.854v-.003Zm-24.914 0v9.76h2.069v-7.99h4.61v7.992h2.069v-7.992h-2.063v-1.77h-6.685ZM103.418 27.2h2.068v1.805h6.58V19.25h-2.068v7.953h-4.512V19.25h-2.068v7.953-.003Zm-71.372 0h-3.458v1.805h9.666V27.2h-4.14V14.183h-5.43v1.806h3.36v11.21h.002Zm-27.18-4.91a5.726 5.726 0 0 0-.334 1.944c0 .68.119 1.35.352 1.964a4.67 4.67 0 0 0 .996 1.57c.43.446.938.8 1.524 1.06.6.248 1.25.373 1.953.373 1.863 0 3.34-.752 4.435-2.26l-1.681-1.12c-.314.46-.704.805-1.172 1.04-.468.235-.99.354-1.562.354-.416 0-.795-.077-1.134-.235a2.502 2.502 0 0 1-.858-.647 3.113 3.113 0 0 1-.547-.943 3.462 3.462 0 0 1-.196-1.159c0-.406.058-.79.176-1.158.119-.38.286-.714.51-1.001a2.62 2.62 0 0 1 .857-.689 2.743 2.743 0 0 1 1.21-.254c.51 0 .991.143 1.445.431.457.288.787.68.996 1.178l1.934-.647c-.391-.957-.982-1.681-1.777-2.18a4.641 4.641 0 0 0-2.597-.765c-.743 0-1.414.138-2.011.412-.6.274-1.114.647-1.543 1.12a5.057 5.057 0 0 0-.977 1.61v.002ZM40.7 27.2h3.458V15.989h-3.359v-1.806h5.43V27.2h4.14v1.805h-9.666V27.2H40.7Zm24.204-13.017v14.825h1.915V27.83c.338.393.781.72 1.329.982a4.14 4.14 0 0 0 1.815.392c.704 0 1.334-.13 1.896-.392a4.457 4.457 0 0 0 1.444-1.081c.39-.46.69-.996.899-1.61a5.73 5.73 0 0 0 .333-1.944c0-.68-.11-1.341-.333-1.944a4.732 4.732 0 0 0-.938-1.59 4.182 4.182 0 0 0-1.425-1.081 4.167 4.167 0 0 0-1.854-.412c-.586 0-1.147.124-1.68.373a3.423 3.423 0 0 0-1.33 1.02v-6.36h-2.07Zm2.267 11.23a3.524 3.524 0 0 1-.195-1.178v-.138c0-.418.066-.81.195-1.178.143-.368.333-.68.566-.943.248-.274.534-.484.859-.628a2.564 2.564 0 0 1 1.095-.235c.415 0 .795.086 1.133.255.338.157.624.373.858.647.248.273.438.602.567.981.13.368.196.76.196 1.178 0 .418-.072.819-.215 1.198-.13.367-.32.688-.567.962a2.66 2.66 0 0 1-.877.666 2.699 2.699 0 0 1-1.153.236c-.39 0-.748-.078-1.076-.236a2.708 2.708 0 0 1-.838-.627 3.05 3.05 0 0 1-.548-.963v.003Zm-12.005-6.172h4.597v1.806h-4.597V19.24Zm-2.068 1.806h2.068v6.136h-2.068v-6.136Zm2.068 6.136h4.597v-6.136h2.069V29h-.003v.008h-6.663v-1.825Zm-38.25-7.914v7.939h2.07v1.797h6.978v-7.939h-2.069V19.27h-6.979Zm6.98 1.805h-4.91v6.128h4.91v-6.128Z" clip-rule="evenodd"/><path fill="#fff" d="M83.96 20.695h-2.168v2.18h-2.168v2.179h2.168v2.179h2.167v-2.18h2.168v-2.179h-2.168v-2.179Z"/></svg>