<svg xmlns="http://www.w3.org/2000/svg" width="899" height="161" fill="none"><path fill="#fff" d="M305.792 97.785V74.217c0-4.634 1.04-5.875 5.649-6.919 3.946-.89 5.97-3.108 6.347-6.962.343-3.47 2.127-5.063 5.752-5.063 12.969 0 25.937-.011 38.894 0 3.511 0 5.398 1.757 5.536 4.997.16 4.129 2.584 6.622 6.975 7.182 4.289.56 5.284 1.845 5.204 6.798-.057 3.416-1.624 4.942-5.467 5.338-3.522.362-6.575 2.91-6.667 5.568-.103 2.943 2.791 5.886 6.336 6.446 4.929.78 5.798 1.757 5.798 6.557v15.046c0 3.558-1.864 5.348-5.547 5.381h-1.589c-3.385-.055-5.181-1.757-5.192-4.997-.023-7.71 0-6.677 0-14.387 0-4.602-2.722-7.49-7.502-7.523a2237.798 2237.798 0 0 0-34.354 0c-4.883.033-7.697 2.921-7.719 7.589-.023 7.49-.035 6.238.011 13.739.011 2.295-.515 4.459-2.893 5.173-2.562.779-5.57 1.274-7.765-.67-1.087-.967-1.681-2.922-1.716-4.437-.16-7.995-.08-7.26-.08-15.266l-.011-.022Zm36.892-30.377c-5.523 0-11.058-.022-16.582.022-1.201 0-2.447.11-3.579.461-4.483 1.406-5.707 6.326-2.493 9.61 1.772 1.812 4.059 2.12 6.45 2.12 10.829 0 21.659.01 32.489-.011 1.121 0 2.299-.088 3.363-.396 2.756-.78 4.723-2.515 5.077-5.293.309-2.46-1.121-4.404-3.339-5.48-1.361-.66-3.031-.956-4.563-.989-5.604-.11-11.207-.044-16.811-.044h-.012Zm201.13 51.32h-19.327c-3.774 0-5.215-1.241-5.684-4.788-.595-4.558-2.699-6.579-7.559-7.259-2.905-.407-4.506-2.01-4.517-4.822a4128.174 4128.174 0 0 1 0-29.443c0-2.878 1.509-4.415 4.471-4.833 4.94-.692 7.01-2.723 7.628-7.479.412-3.24 2.15-4.733 5.592-4.733 12.969-.011 25.926-.011 38.894 0 3.522 0 5.455 1.757 5.581 4.964.171 4.173 2.539 6.754 6.919 7.182 2.218.22 4.208.813 4.837 2.933.721 2.438 1.087 5.118-.606 7.358-2.127 2.822-5.192 1.801-7.937 1.23-2.241-.461-3.282-2.109-3.453-4.327-.355-4.668-3.065-7.15-7.925-7.16a4467.599 4467.599 0 0 0-34.343 0c-4.311.021-7.422 2.635-7.262 5.919.16 3.229 2.722 5.82 6.13 5.865 8.177.11 16.342.142 24.519.087 3.911-.033 6.335 1.79 6.427 5.184.137 5.162-1.361 6.886-6.027 6.897-8.04.011-16.068 0-24.107 0-4.38 0-6.908 2.383-6.953 6.6-.046 3.636-.023-1.471 0 2.164 0 3.009 1.967 5.469 5.02 6.15 1.167.264 2.402.34 3.603.34 10.532.022 21.076.033 31.609 0 6.255 0 8.611-2.042 9.343-7.95.32-2.538 2.001-4.064 4.666-4.185 1.132-.044 2.276-.066 3.408.033.663.055 1.361.242 1.933.549 2.127 1.11 2.961 4.086 2.23 7.688-.446 2.185-2.047 3.602-4.643 3.756-2.94.175-5.341 1.208-6.713 3.756-.492.911-.607 2.086-.652 3.141-.16 3.558-1.784 5.15-5.547 5.161-6.518.022-13.037 0-19.555 0v.022Zm-47.998-21.373v15.925c0 3.822-1.681 5.403-5.672 5.436h-.915c-4.3-.011-5.764-1.384-5.776-5.48-.011-12.882 0-17.012 0-29.894 0-2.834.218-5.7-.114-8.5-.217-1.845-.789-4.009-2.024-5.327-3.225-3.481-8.531-2.12-10.03 2.35-.297.89-.171 1.944-.594 2.757-.732 1.428-1.43 3.152-2.688 4.008-2.504 1.692-3.613 3.702-3.591 6.579.069 8.226.035 7.699.023 15.924 0 3.976-1.784 5.601-6.038 5.612-4.471.011-6.301-1.57-6.313-5.568-.023-8.226-.057-7.698.023-15.924.023-2.976-1.12-5.041-3.728-6.732-1.201-.78-1.875-2.45-2.527-3.833-.675-1.428-.801-3.108-1.59-4.459-1.269-2.186-3.534-3.064-6.027-2.603-2.481.472-4.128 2.153-4.723 4.525-.331 1.329-.389 2.734-.389 4.107-.022 15.134-.034 21.526 0 36.659 0 2.142-.068 4.591-2.401 5.14-2.425.582-5.226.417-7.685-.143-1.007-.23-2.15-2.383-2.162-3.668-.137-17.1-.114-25.457-.068-42.545 0-2.603 1.852-4.207 5.215-4.887 4.951-1 6.278-2.296 7.204-7.051.652-3.35 2.631-4.525 7.388-4.371 3.111.099 4.815 1.735 5.158 4.953.423 3.943 2.413 6.392 5.981 7.007 1.521.252 3.122.153 4.677.099 2.756-.088 5.558.032 8.245-.44 3.9-.68 5.57-2.745 6.096-6.611.48-3.482 2.024-4.942 5.318-5.008 4.848-.11 6.598 1.032 7.307 4.722.847 4.415 2.848 6.194 7.537 6.721 3.247.363 4.86 2.043 4.871 5.195.023 8.445 0 16.88 0 25.325h.012ZM225 97.918V73.911c0-4.108 1.269-5.58 5.421-6.425 4.048-.824 6.129-3.031 6.621-6.996.458-3.712 2.047-5.096 5.935-5.107 12.889 0 25.789-.01 38.677 0 3.511 0 5.398 1.725 5.581 4.997.24 4.207 2.584 6.623 6.942 7.183 4.265.55 5.214 1.78 5.134 6.622-.068 3.712-1.418 5.13-5.226 5.513-4.368.44-6.667 2.757-6.85 6.941-.149 3.427-1.933 5.074-5.672 5.085-11.379.022-22.758.23-34.125-.066-7.651-.197-10.419-5.008-10.167.934.286 6.754.068 13.53.068 20.295 0 4.547-1.349 5.821-6.106 5.832-4.781 0-6.233-1.318-6.233-5.755V97.918Zm36.87-30.377c-5.455 0-10.922-.022-16.377.022-1.2 0-2.447.088-3.591.417-4.723 1.373-6.152 6.381-2.596 9.588 1.224 1.098 3.168 2.02 4.804 2.043 11.824.175 23.649.12 35.474.066 1.087 0 2.242-.407 3.26-.846 2.321-1 3.831-2.834 3.853-5.239.023-2.416-1.532-4.283-3.831-5.25-1.269-.537-2.779-.746-4.185-.768-5.604-.088-11.219-.033-16.823-.033h.012ZM393.143 91.22V61.118c0-3.965 1.842-5.733 5.936-5.755 4.791-.022 6.667 1.538 6.678 5.7.023 20.284.023 31.827 0 52.122 0 4.075-1.806 5.568-6.507 5.557-4.311-.011-6.084-1.592-6.095-5.502-.012-10.257 0-11.762 0-22.02h-.012Zm199.055 27.589.961-3.152c3.408-.186 5.901-.747 7.479-1.669 1.578-.923 2.849-3.031 3.809-6.304l12.259-41.162c.446-1.362.676-2.537.676-3.525 0-1.67-.584-2.746-1.739-3.24-1.155-.494-3.031-.769-5.604-.835l.961-3.151h26.749l-.96 3.151c-3.671.066-6.154.616-7.435 1.67-1.292 1.054-2.378 3.064-3.281 6.03l-12.545 42.182c-.263.923-.39 1.757-.39 2.504 0 1.428.607 2.493 1.831 3.196 1.223.714 3.35 1.098 6.369 1.164l-.96 3.152h-28.19l.01-.011Zm70.092.829c-1.738 0-3.133-.484-4.197-1.439-1.063-.955-1.589-2.306-1.589-4.031 0-1.91.777-4.568 2.321-7.973l6.953-15.671c1.155-3.218 1.739-5.437 1.739-6.678 0-1.91-.961-2.877-2.894-2.877-2.504 0-5.466 2.076-8.886 6.216-3.407 4.14-6.564 9.038-9.457 14.694-2.893 5.656-5.341 11.301-7.342 16.924h-7.433l10.04-31.992c.641-2.042.961-3.525.961-4.447 0-.923-.446-1.395-1.349-1.395-1.67 0-3.9 2.405-6.668 7.226l-3.087-.922c4.38-9.028 9.137-13.542 14.283-13.542 1.67 0 2.974.429 3.911 1.296.938.868 1.396 2.098 1.396 3.712 0 1.79-.515 3.976-1.544 6.535-1.03 2.57-3.317 7.742-6.851 15.529h1.35c4.952-9.83 9.263-16.792 12.934-20.91 3.671-4.108 7.468-6.162 11.39-6.162 2.573 0 4.575.594 5.981 1.758 1.419 1.175 2.128 2.877 2.128 5.095 0 2.592-.778 5.535-2.322 8.808l-7.342 16.88c-1.098 2.35-1.647 3.899-1.647 4.635 0 .988.481 1.482 1.453 1.482 1.669 0 3.957-2.438 6.85-7.325l3.088.923c-4.312 9.082-9.046 13.629-14.193 13.629l.023.022Zm37.841-38.651-10.819 27.445c-.388.923-.583 1.757-.583 2.504 0 .989.481 1.483 1.453 1.483 2.321 0 5.535-2.746 9.652-8.248l2.997.835c-5.215 9.763-10.877 14.65-16.995 14.65-1.544 0-2.928-.461-4.151-1.395-1.224-.922-1.83-2.284-1.83-4.074 0-1.977.641-4.448 1.934-7.413l10.909-25.776h-9.172l1.349-4.448h9.367l3.282-8.895 9.56-.747-4.826 9.642h10.82l-1.351 4.448h-11.584l-.012-.01Zm45.383.271c0 4.327-2.756 8.204-8.257 11.641-5.5 3.427-12.499 5.173-20.996 5.239-.446 2.163-.675 4.019-.675 5.568 0 5.809 2.733 8.72 8.211 8.72 4.437 0 8.371-2.724 11.779-8.16l2.996.834a32.947 32.947 0 0 1-2.218 4.547c-.904 1.549-2.07 3.152-3.522 4.821-1.453 1.67-3.225 3.032-5.307 4.075a14.73 14.73 0 0 1-6.713 1.581c-4.06 0-7.262-1.065-9.606-3.196-2.356-2.13-3.522-5.48-3.522-10.059 0-4.58 1.212-9.49 3.625-14.552 2.413-5.063 5.821-9.423 10.235-13.069 4.403-3.646 9.023-5.47 13.861-5.47 6.758 0 10.132 2.505 10.132 7.513l-.023-.033Zm-13.231-2.69c-2.768 0-5.581 1.592-8.452 4.776-2.859 3.185-5.066 6.974-6.61 11.356 5.661-.615 10.167-2.23 13.518-4.821 3.351-2.592 5.02-5.25 5.02-7.973 0-2.23-1.155-3.339-3.476-3.339Zm17.376 41.073c-1.864 0-3.294-.494-4.3-1.483-.995-.988-1.498-2.35-1.498-4.074 0-2.098.709-5.096 2.127-8.995l14.1-40.052c.835-2.285.995-3.954.481-5.008-.515-1.055-1.773-1.637-3.763-1.758l-3.762-.274.674-2.592L769.455 53h2.413l-18.538 52.66c-1.03 2.911-1.544 4.668-1.544 5.283 0 .988.48 1.483 1.452 1.483 2.448 0 5.89-3.427 10.327-10.291l3.088.835c-3.031 5.93-5.821 10.202-8.394 12.794-2.574 2.592-5.444 3.899-8.589 3.899l-.011-.022Zm25.299 0c-1.864 0-3.293-.494-4.299-1.483-.995-.988-1.499-2.35-1.499-4.074 0-2.098.709-5.096 2.128-8.995l14.1-40.052c.835-2.285.995-3.954.48-5.008-.514-1.055-1.772-1.637-3.762-1.758l-3.762-.274.674-2.592L794.754 53h2.413l-18.538 52.66c-1.029 2.911-1.543 4.668-1.543 5.283 0 .988.48 1.483 1.452 1.483 2.447 0 5.89-3.427 10.327-10.291l3.087.835c-3.03 5.93-5.82 10.202-8.394 12.794-2.573 2.592-5.443 3.899-8.588 3.899l-.012-.022Zm55.898-38.383c0 4.327-2.756 8.204-8.257 11.641-5.501 3.427-12.5 5.173-20.997 5.239-.446 2.163-.674 4.019-.674 5.568 0 5.809 2.733 8.72 8.211 8.72 4.437 0 8.371-2.724 11.779-8.16l2.996.834a32.947 32.947 0 0 1-2.218 4.547c-.904 1.549-2.07 3.152-3.523 4.821-1.452 1.67-3.225 3.032-5.306 4.075a14.73 14.73 0 0 1-6.713 1.581c-4.06 0-7.262-1.065-9.606-3.196-2.356-2.13-3.523-5.48-3.523-10.059 0-4.58 1.213-9.49 3.626-14.552 2.413-5.063 5.821-9.423 10.235-13.069 4.403-3.646 9.023-5.47 13.86-5.47 6.759 0 10.133 2.505 10.133 7.513l-.023-.033Zm-13.232-2.69c-2.767 0-5.58 1.592-8.451 4.776-2.859 3.185-5.066 6.974-6.61 11.356 5.661-.615 10.167-2.23 13.517-4.821 3.351-2.592 5.021-5.25 5.021-7.973 0-2.23-1.155-3.339-3.477-3.339Zm24.34 41.532c-3.865 0-6.941-1.066-9.217-3.196-2.287-2.131-3.431-5.458-3.431-9.972 0-4.514 1.155-9.489 3.477-14.552 2.321-5.063 5.615-9.445 9.892-13.124 4.277-3.679 8.806-5.513 13.563-5.513 3.351 0 5.981.802 7.914 2.405 1.933 1.604 2.893 3.58 2.893 5.93 0 1.912-.526 3.46-1.59 4.635-1.063 1.175-2.493 1.758-4.299 1.758-2.699 0-4.243-1.209-4.632-3.614-.069-.428-.092-1.548-.092-3.338s-.228-3.12-.674-3.987c-4.895.066-9.206 3.01-12.934 8.852-3.729 5.843-5.604 11.663-5.604 17.473 0 5.809 2.573 8.533 7.719 8.533 4.38 0 8.269-2.746 11.688-8.248l2.996.835a39.822 39.822 0 0 1-2.264 4.591c-.869 1.515-2.013 3.119-3.431 4.821-1.418 1.702-3.168 3.075-5.261 4.129a14.715 14.715 0 0 1-6.713 1.582Zm43.921-39.113-10.819 27.445c-.388.923-.583 1.757-.583 2.504 0 .989.481 1.483 1.453 1.483 2.321 0 5.535-2.746 9.652-8.248l2.996.835c-5.215 9.763-10.876 14.65-16.994 14.65-1.544 0-2.928-.461-4.151-1.395-1.224-.922-1.83-2.284-1.83-4.074 0-1.977.64-4.448 1.933-7.413l10.91-25.776h-9.172l1.349-4.448h9.366l3.283-8.895 9.56-.747-4.826 9.642h10.819l-1.35 4.448h-11.585l-.011-.01Zm-748.38-13.479c-.196.007-.438.015-.754.015l-.018-.025c-.888.2-1.992.128-3.121.054-3.348-.22-6.919-.454-5.735 6.394.264 1.508-1.565 1.88-2.778 1.942-3.444.188-6.9.264-10.351.195-.653-.011-1.321-.56-1.924-1.057-.104-.086-.207-.17-.307-.25-.107-.088.295-1.226.503-1.239 3.366-.196 4.587-2.479 5.804-4.755.613-1.145 1.225-2.288 2.108-3.163 7.995-7.926 16.159-15.7 25.498-22.085.911-.623 2.024-1.194 2.778-.114.581.836.037 1.309-.521 1.794-.244.213-.491.428-.648.676-.564.895-1.565 1.555-2.559 2.21-1.954 1.288-3.887 2.562-2.45 5.577 1.246 2.61.131 3.074-1.583 3.786l-.07.03c-.733.307-1.484.586-2.233.865-1.596.594-3.189 1.187-4.617 2.05-1.433.868-2.118 2.558.226 3.558 5.122 2.18 18.383-1.301 20.972-6.103 2.42-4.493 6.036-7.825 9.649-11.155 2.028-1.869 4.055-3.736 5.869-5.808 3.912-4.462 8.492-8.339 13.074-12.217 2.278-1.928 4.557-3.857 6.754-5.858 1.653-1.508 2.338-3.494 1.044-5.663-1.289-2.155-3.476-2.444-5.531-1.96-13.544 3.186-26.629 7.485-38.25 15.51-18.553 12.815-37.137 25.586-55.872 38.13-6.385 4.28-10.25 2.188-12.381-5.222-4.733-16.454-11.671-30.802-31.607-33.033-7.284-.817-12.626 3.746-11.57 10.986.534 3.67.05 7.127-1.716 10.57-.389.761-.782 1.522-1.176 2.283-2.719 5.263-5.462 10.57-7.164 16.17-.142.468-.305.961-.473 1.47-1.517 4.584-3.446 10.413 5.759 10.735.377.013 1.1.962 1.012 1.314-.201.836-.61 1.829-1.264 2.313-8.823 6.504-16.076 14.379-19.193 25.032-1.578 5.38-.535 10.967 4.06 15.134 3.287 2.979 7.485 4.707 11.168 2.2 3.36-2.287 7.045-3.821 10.724-5.352 3.239-1.348 6.47-2.693 9.469-4.547.723-.447 1.6-.856 2.489-1.27 2.457-1.143 4.993-2.325 4.55-4.462-.698-3.349-4.236-6.454-7.184-8.893-2.922-2.419-10.37-18.666-9.483-22.569 1.24-5.465 4.034-10.197 6.83-14.934 2.388-4.043 4.778-8.09 6.204-12.6.591-1.86 2.854-2.878 5.035-2.136 1.48.501 1.228 1.86.993 3.126l-.02.104c-.883 4.865-1.75 9.735-2.618 14.606-.434 2.434-.867 4.87-1.303 7.303-.277 1.559.207 2.803 1.822 3.117 3.111.61 3.042 2.011 1.64 4.419-1.489 2.551-1.696 5.668-.03 8.025 1.671 2.37 4.468 2.866 7.309 1.446 1.772-.88 3.148-.095 3.13 1.69-.114 9.535 3.877 7.385 8.736 3.225.446-.383 1.055-.595 1.643-.8.107-.037.213-.074.317-.112l1.384-.492c9.145-3.244 18.278-6.485 23.441-15.848.399-.732 1.708-1.086 2.727-1.362l.171-.046c5.904-1.605 11.932-1.629 17.956-1.653 4.524-.017 9.045-.035 13.512-.723 4.406-.679 9.207-3.25 9.245-7.504.035-3.43-2.591-3.217-5.214-3.004-1.135.092-2.27.184-3.189-.019-.186-.039-.382-.032-.698-.021Z"/><path fill="#fff" d="M68.108 115.545c-1.093 7.278 1.685 13.506 13.054 13.425h-.006c9.71-.396 20.696-6.273 31.43-13.789 7.089-4.965 13.217-10.201 17.189-17.937 2.923-5.688 1.42-10.25-2.985-14.242-1.942-1.76-3.796-1.954-5.971.17-7.718 7.554-17.327 11.677-27.194 15.825-2.515 1.058-5.379 1.586-8.263 2.118-7.684 1.417-15.513 2.86-17.254 14.43Z"/></svg>