<svg xmlns="http://www.w3.org/2000/svg" width="189" height="48" fill="none"><path fill="#fff" d="M12.487 19.674a4.6 4.6 0 0 0-1.767-1.395 5.269 5.269 0 0 0-2.208-.49c-.931 0-1.772.175-2.524.523a5.798 5.798 0 0 0-1.93 1.43 6.544 6.544 0 0 0-1.244 2.128 7.623 7.623 0 0 0-.442 2.617c0 .868.14 1.69.419 2.465A6.17 6.17 0 0 0 4 29a5.658 5.658 0 0 0 1.93 1.395c.76.341 1.62.512 2.582.512.961 0 1.774-.194 2.488-.58a5.352 5.352 0 0 0 1.814-1.628l1.883 1.418c-.124.171-.34.414-.651.732-.31.318-.721.636-1.232.954-.512.318-1.128.598-1.85.837-.72.24-1.554.361-2.5.361-1.302 0-2.476-.247-3.523-.744a8.54 8.54 0 0 1-2.674-1.953A8.487 8.487 0 0 1 .58 27.57 8.561 8.561 0 0 1 0 24.489c0-1.272.21-2.446.628-3.523a8.35 8.35 0 0 1 1.756-2.791 7.852 7.852 0 0 1 2.71-1.825c1.055-.434 2.216-.651 3.488-.651 1.085 0 2.15.21 3.197.628a5.965 5.965 0 0 1 2.57 1.93l-1.86 1.419-.002-.002Zm3.31 7.398c0-.806.151-1.558.454-2.256a5.818 5.818 0 0 1 3.104-3.081 5.825 5.825 0 0 1 2.302-.454c.822 0 1.59.151 2.302.454a5.818 5.818 0 0 1 1.86 1.244 5.89 5.89 0 0 1 1.244 1.837c.302.697.454 1.45.454 2.256 0 .805-.152 1.562-.454 2.267a5.702 5.702 0 0 1-1.244 1.837 5.887 5.887 0 0 1-4.162 1.686c-.82 0-1.59-.152-2.302-.455a5.878 5.878 0 0 1-1.86-1.231 5.702 5.702 0 0 1-1.244-1.837 5.686 5.686 0 0 1-.454-2.267Zm2.233 0c0 .558.085 1.073.255 1.547.17.473.411.875.722 1.209.31.333.689.597 1.14.79.45.194.954.29 1.511.29.558 0 1.063-.096 1.512-.29a3.35 3.35 0 0 0 1.14-.79c.31-.334.55-.737.722-1.21.17-.472.255-.988.255-1.546s-.086-1.073-.255-1.547a3.498 3.498 0 0 0-.722-1.209 3.335 3.335 0 0 0-1.14-.79 3.776 3.776 0 0 0-1.512-.29c-.558 0-1.062.096-1.511.29a3.34 3.34 0 0 0-1.14.79c-.31.333-.55.737-.722 1.21a4.514 4.514 0 0 0-.255 1.546Zm11.232-9.468c0-.418.151-.78.454-1.08a1.477 1.477 0 0 1 1.082-.454c.419 0 .78.151 1.08.454.303.302.454.663.454 1.08 0 .418-.151.78-.454 1.082a1.476 1.476 0 0 1-1.08.454 1.48 1.48 0 0 1-1.082-.454 1.478 1.478 0 0 1-.454-1.082Zm.487 3.954h2.093v11.023h-2.093V21.558Zm4.993.002h2.093v1.699h.045c.263-.589.722-1.066 1.373-1.431.651-.364 1.403-.547 2.256-.547.527 0 1.035.08 1.524.244a3.44 3.44 0 0 1 1.279.755c.364.341.654.78.873 1.315.217.535.325 1.166.325 1.895v7.093h-2.092v-6.51c0-.513-.07-.95-.21-1.315a2.4 2.4 0 0 0-.557-.883 2.114 2.114 0 0 0-.803-.49 2.955 2.955 0 0 0-.941-.15c-.434 0-.838.07-1.21.209-.37.139-.696.36-.976.663-.28.302-.497.686-.651 1.15-.156.465-.232 1.015-.232 1.651v5.674h-2.093V21.56h-.003Zm12.869-5.443h11.046v3.348h-7.42v3.35h6.86v3.348h-6.86v6.418H47.61V16.117h.002Zm23.652 16.466h-3.349V31.05h-.046a3.828 3.828 0 0 1-.477.65c-.194.218-.43.412-.709.582a4.12 4.12 0 0 1-.954.419 3.977 3.977 0 0 1-1.163.163c-.883 0-1.6-.136-2.15-.407a3.07 3.07 0 0 1-1.28-1.128c-.302-.48-.504-1.046-.605-1.698-.1-.65-.151-1.357-.151-2.116V21.28h3.488v5.534c0 .326.012.663.035 1.012.023.348.093.67.21.964.116.295.294.535.534.722.24.186.586.28 1.035.28.45 0 .815-.082 1.093-.245.28-.164.492-.38.639-.651.146-.27.244-.578.29-.919.046-.34.07-.697.07-1.07V21.28h3.488v11.302h.002Zm2.331-11.303h3.349v1.534h.045a2.82 2.82 0 0 1 .465-.651 3.35 3.35 0 0 1 .721-.581c.28-.171.596-.31.954-.419A3.973 3.973 0 0 1 80.291 21c.884 0 1.597.136 2.14.406.543.272.965.648 1.267 1.128.303.482.507 1.047.616 1.698.109.651.164 1.357.164 2.117v6.233H80.99v-5.535c0-.325-.012-.663-.035-1.011a3.173 3.173 0 0 0-.21-.965 1.668 1.668 0 0 0-.535-.721c-.24-.187-.585-.28-1.034-.28-.45 0-.815.081-1.093.245-.28.163-.492.38-.64.65a2.632 2.632 0 0 0-.29.92c-.045.34-.07.696-.07 1.07v5.627h-3.488V21.279h-.001Zm24.931 11.3h-3.21v-1.488h-.045a3.84 3.84 0 0 1-.547.616 4.2 4.2 0 0 1-.79.57c-.303.171-.636.31-1 .419-.364.108-.74.163-1.128.163-.837 0-1.597-.143-2.279-.43a5.095 5.095 0 0 1-1.756-1.21 5.37 5.37 0 0 1-1.128-1.849c-.264-.712-.396-1.496-.396-2.35 0-.79.12-1.546.361-2.266.24-.721.58-1.36 1.022-1.918a4.984 4.984 0 0 1 1.618-1.337c.635-.333 1.355-.5 2.162-.5.73 0 1.408.113 2.035.338a3.256 3.256 0 0 1 1.546 1.15h.046V15h3.488v17.582h.001Zm-3.21-5.65c0-.853-.244-1.542-.731-2.07-.49-.526-1.174-.79-2.058-.79-.883 0-1.57.265-2.058.79-.49.528-.732 1.217-.732 2.07 0 .853.244 1.542.732 2.07.489.527 1.174.79 2.058.79.886 0 1.57-.263 2.058-.79.489-.528.732-1.217.732-2.07Z"/></svg>