<svg xmlns="http://www.w3.org/2000/svg" width="189" height="48" fill="none"><path fill="#fff" d="M53.355 13.42c0-2.248-1.64-3.458-3.583-3.458h-4.693v11.005h2.4v-3.742h2.034c2.49 0 3.842-1.729 3.842-3.804Zm-2.505.158c0 .944-.593 1.573-1.398 1.573h-1.989v-3.113h1.99c.804 0 1.396.534 1.396 1.54Zm8.762 1.116v-2.42h-.73c-.834 0-1.639.377-2.05 1.1v-1.1H54.57v8.694h2.339v-4.623c0-1.21.683-1.666 1.837-1.666.32 0 .866.015.866.015Zm4.752 6.383c2.43 0 4.161-1.509 4.161-4.449 0-2.956-1.73-4.465-4.16-4.465-2.415 0-4.146 1.51-4.146 4.465 0 2.94 1.73 4.45 4.145 4.45Zm0-6.949c1.018 0 1.777.707 1.777 2.5 0 1.777-.76 2.484-1.777 2.484-.987 0-1.76-.707-1.76-2.484 0-1.792.773-2.5 1.76-2.5Zm9.932 6.808v-2.012s-.532.047-1.018.047c-.501 0-.653-.142-.653-.676v-4.072h1.777v-1.949h-1.776V9.963h-2.354v2.311h-1.215v1.95h1.215v4.197c0 1.62.228 2.61 2.186 2.61 1.063 0 1.838-.095 1.838-.095Zm4.859.141c2.43 0 4.16-1.509 4.16-4.449 0-2.956-1.73-4.465-4.16-4.465-2.415 0-4.146 1.51-4.146 4.465 0 2.94 1.731 4.45 4.146 4.45Zm0-6.949c1.017 0 1.776.707 1.776 2.5 0 1.777-.759 2.484-1.776 2.484-.987 0-1.761-.707-1.761-2.484 0-1.792.774-2.5 1.76-2.5Zm10.63 3.553c-.152 1.038-.835 1.431-1.58 1.431-.956 0-1.715-.707-1.715-2.484 0-1.792.744-2.5 1.746-2.5.79 0 1.397.409 1.519 1.478h2.354c-.198-2.295-1.777-3.443-3.888-3.443-2.414 0-4.145 1.557-4.145 4.497 0 2.955 1.776 4.417 4.191 4.417 2.156 0 3.614-1.148 3.857-3.396h-2.34Zm7.167 3.396c2.43 0 4.161-1.51 4.161-4.449 0-2.956-1.731-4.465-4.161-4.465-2.415 0-4.146 1.51-4.146 4.465 0 2.94 1.731 4.45 4.146 4.45Zm0-6.95c1.017 0 1.776.708 1.776 2.501 0 1.776-.759 2.484-1.776 2.484-.987 0-1.761-.707-1.761-2.484 0-1.792.774-2.5 1.761-2.5Zm7.638 6.84V9.333h-2.338v11.634h2.338ZM52.611 38.261v-2.17H47.48v-8.835h-2.4V38.26h7.532Zm6.333-3.333c0 .739-.486 1.682-1.868 1.682-.896 0-1.139-.581-1.139-.975 0-.55.41-.896.972-1.006.577-.126 2.035-.314 2.035-.314v.613Zm-5.133-2.515h2.263c0-.347.091-1.07 1.473-1.07 1.124 0 1.397.41 1.397 1.007v.298l-2.763.41c-.775.11-2.642.597-2.642 2.578 0 1.745 1.29 2.735 3.021 2.735 1.443 0 2.08-.503 2.445-.896v.787h2.476s-.183-.66-.183-1.29v-4.685c0-1.258-.668-2.83-3.75-2.83-3.189 0-3.705 1.682-3.735 2.956h-.002Zm11.343 5.848v-.849c.426.55 1.17.96 2.096.96 2.278 0 3.842-1.51 3.842-4.45 0-2.956-1.595-4.465-3.705-4.465-.927 0-1.807.409-2.233.959v-3.79h-2.338v11.635h2.338Zm1.777-6.839c1.017 0 1.776.707 1.776 2.5 0 1.776-.759 2.484-1.776 2.484-1.14 0-1.762-.55-1.762-2.484 0-1.95.623-2.5 1.762-2.5Zm10.007.723h2.293c0-.676-.334-2.689-3.615-2.689-2.004 0-3.599.928-3.599 2.72 0 2.028 1.58 2.453 3.387 2.704l.455.063c.653.095 1.26.236 1.26.77 0 .63-.652.881-1.396.881-.805 0-1.52-.252-1.52-1.085H71.85c0 .456.197 2.861 3.735 2.861 3.144 0 3.903-1.588 3.903-2.924 0-3.506-5.133-2.106-5.133-3.443 0-.597.638-.786 1.23-.786.805 0 1.353.33 1.353.928Zm-61.208.093c.36.215.653.741.653 1.17v7.404c0 .431-.294.605-.652.391l-6.19-3.699c-.36-.215-.652-.741-.652-1.17V28.93c0-.43.294-.604.653-.39l6.188 3.699Zm9.547-6.532c0 .43-.294.955-.652 1.17l-6.192 3.7c-.36.215-.652.038-.652-.39v-7.403c0-.43.294-.955.652-1.17l6.192-3.7c.36-.216.652-.039.652.39v7.402Zm-1.36-9.829c.367.219.37.572.011.786l-6.195 3.702c-.36.215-.95.212-1.315-.006L1.356 11.356c-.367-.219-.37-.572-.01-.786L7.54 6.868c.36-.215.95-.211 1.315.007l15.062 9.002ZM7.492 35.495c0 .432-.294.606-.651.391L.65 32.188c-.359-.216-.65-.746-.65-1.181V13c0-.438.299-.614.663-.396l15.058 9c.366.218.663.747.663 1.175v7.404c0 .43-.296.604-.654.39L8.145 26.04c-.361-.215-.654-.037-.654.39v9.064Zm19.18-18.024c0-.432.294-.957.652-1.17l6.19-3.701c.36-.215.653-.033.653.402v18.006c0 .438-.299.97-.663 1.188l-15.058 8.999c-.366.219-.662.045-.662-.383v-7.405c0-.431.295-.957.653-1.17l7.581-4.531c.36-.215.654-.744.654-1.172V17.47Zm-7.543-6.124c-.36-.215-.358-.565 0-.78l6.194-3.7c.36-.216.946-.214 1.305 0l6.194 3.701c.36.216.358.566 0 .78l-6.194 3.702c-.36.215-.946.214-1.304 0l-6.195-3.703Z"/></svg>